<?xml version="1.0" encoding="UTF-8" standalone="no"?>
<!DOCTYPE svg PUBLIC "-//W3C//DTD SVG 1.0//EN" "http://www.w3.org/TR/2001/PR-SVG-20010719/DTD/svg10.dtd">
<svg width="26cm" height="25cm" viewBox="47 -19 505 500" xmlns="http://www.w3.org/2000/svg" xmlns:xlink="http://www.w3.org/1999/xlink">
  <g>
    <rect style="fill: #ffffff" x="84" y="16" width="432" height="432" rx="40" ry="40"/>
    <rect style="fill: none; fill-opacity:0; stroke-width: 8; stroke-linejoin: round; stroke: #5555FF" x="84" y="16" width="432" height="432" rx="40" ry="40"/>
  </g>
  <line style="fill: none; fill-opacity:0; stroke-width: 8; stroke-linejoin: round; stroke: #5555FF" x1="516" y1="62" x2="548" y2="62"/>
  <line style="fill: none; fill-opacity:0; stroke-width: 8; stroke-linejoin: round; stroke: #5555FF" x1="516" y1="82" x2="548" y2="82"/>
  <line style="fill: none; fill-opacity:0; stroke-width: 8; stroke-linejoin: round; stroke: #5555FF" x1="516" y1="102" x2="548" y2="102"/>
  <line style="fill: none; fill-opacity:0; stroke-width: 8; stroke-linejoin: round; stroke: #5555FF" x1="516" y1="122" x2="548" y2="122"/>
  <line style="fill: none; fill-opacity:0; stroke-width: 8; stroke-linejoin: round; stroke: #5555FF" x1="516" y1="142" x2="548" y2="142"/>
  <line style="fill: none; fill-opacity:0; stroke-width: 8; stroke-linejoin: round; stroke: #5555FF" x1="516" y1="162" x2="548" y2="162"/>
  <line style="fill: none; fill-opacity:0; stroke-width: 8; stroke-linejoin: round; stroke: #5555FF" x1="516" y1="182" x2="548" y2="182"/>
  <line style="fill: none; fill-opacity:0; stroke-width: 8; stroke-linejoin: round; stroke: #5555FF" x1="516" y1="202" x2="548" y2="202"/>
  <line style="fill: none; fill-opacity:0; stroke-width: 8; stroke-linejoin: round; stroke: #5555FF" x1="516" y1="222" x2="548" y2="222"/>
  <line style="fill: none; fill-opacity:0; stroke-width: 8; stroke-linejoin: round; stroke: #5555FF" x1="516" y1="242" x2="548" y2="242"/>
  <line style="fill: none; fill-opacity:0; stroke-width: 8; stroke-linejoin: round; stroke: #5555FF" x1="516" y1="262" x2="548" y2="262"/>
  <line style="fill: none; fill-opacity:0; stroke-width: 8; stroke-linejoin: round; stroke: #5555FF" x1="516" y1="282" x2="548" y2="282"/>
  <line style="fill: none; fill-opacity:0; stroke-width: 8; stroke-linejoin: round; stroke: #5555FF" x1="516" y1="302" x2="548" y2="302"/>
  <line style="fill: none; fill-opacity:0; stroke-width: 8; stroke-linejoin: round; stroke: #5555FF" x1="516" y1="322" x2="548" y2="322"/>
  <line style="fill: none; fill-opacity:0; stroke-width: 8; stroke-linejoin: round; stroke: #5555FF" x1="516" y1="342" x2="548" y2="342"/>
  <line style="fill: none; fill-opacity:0; stroke-width: 8; stroke-linejoin: round; stroke: #5555FF" x1="516" y1="362" x2="548" y2="362"/>
  <line style="fill: none; fill-opacity:0; stroke-width: 8; stroke-linejoin: round; stroke: #5555FF" x1="516" y1="382" x2="548" y2="382"/>
  <line style="fill: none; fill-opacity:0; stroke-width: 8; stroke-linejoin: round; stroke: #5555FF" x1="516" y1="402" x2="548" y2="402"/>
  <line style="fill: none; fill-opacity:0; stroke-width: 8; stroke-linejoin: round; stroke: #5555FF" x1="50" y1="62" x2="82" y2="62"/>
  <line style="fill: none; fill-opacity:0; stroke-width: 8; stroke-linejoin: round; stroke: #5555FF" x1="50" y1="82" x2="82" y2="82"/>
  <line style="fill: none; fill-opacity:0; stroke-width: 8; stroke-linejoin: round; stroke: #5555FF" x1="50" y1="102" x2="82" y2="102"/>
  <line style="fill: none; fill-opacity:0; stroke-width: 8; stroke-linejoin: round; stroke: #5555FF" x1="50" y1="122" x2="82" y2="122"/>
  <line style="fill: none; fill-opacity:0; stroke-width: 8; stroke-linejoin: round; stroke: #5555FF" x1="50" y1="142" x2="82" y2="142"/>
  <line style="fill: none; fill-opacity:0; stroke-width: 8; stroke-linejoin: round; stroke: #5555FF" x1="50" y1="162" x2="82" y2="162"/>
  <line style="fill: none; fill-opacity:0; stroke-width: 8; stroke-linejoin: round; stroke: #5555FF" x1="50" y1="182" x2="82" y2="182"/>
  <line style="fill: none; fill-opacity:0; stroke-width: 8; stroke-linejoin: round; stroke: #5555FF" x1="50" y1="202" x2="82" y2="202"/>
  <line style="fill: none; fill-opacity:0; stroke-width: 8; stroke-linejoin: round; stroke: #5555FF" x1="50" y1="222" x2="82" y2="222"/>
  <line style="fill: none; fill-opacity:0; stroke-width: 8; stroke-linejoin: round; stroke: #5555FF" x1="50" y1="242" x2="82" y2="242"/>
  <line style="fill: none; fill-opacity:0; stroke-width: 8; stroke-linejoin: round; stroke: #5555FF" x1="50" y1="262" x2="82" y2="262"/>
  <line style="fill: none; fill-opacity:0; stroke-width: 8; stroke-linejoin: round; stroke: #5555FF" x1="50" y1="282" x2="82" y2="282"/>
  <line style="fill: none; fill-opacity:0; stroke-width: 8; stroke-linejoin: round; stroke: #5555FF" x1="50" y1="302" x2="82" y2="302"/>
  <line style="fill: none; fill-opacity:0; stroke-width: 8; stroke-linejoin: round; stroke: #5555FF" x1="50" y1="322" x2="82" y2="322"/>
  <line style="fill: none; fill-opacity:0; stroke-width: 8; stroke-linejoin: round; stroke: #5555FF" x1="50" y1="342" x2="82" y2="342"/>
  <line style="fill: none; fill-opacity:0; stroke-width: 8; stroke-linejoin: round; stroke: #5555FF" x1="50" y1="362" x2="82" y2="362"/>
  <line style="fill: none; fill-opacity:0; stroke-width: 8; stroke-linejoin: round; stroke: #5555FF" x1="50" y1="382" x2="82" y2="382"/>
  <line style="fill: none; fill-opacity:0; stroke-width: 8; stroke-linejoin: round; stroke: #5555FF" x1="50" y1="402" x2="82" y2="402"/>
  <line style="fill: none; fill-opacity:0; stroke-width: 8; stroke-linejoin: round; stroke: #5555FF" x1="126" y1="-16" x2="126" y2="16"/>
  <line style="fill: none; fill-opacity:0; stroke-width: 8; stroke-linejoin: round; stroke: #5555FF" x1="146" y1="-16" x2="146" y2="16"/>
  <line style="fill: none; fill-opacity:0; stroke-width: 8; stroke-linejoin: round; stroke: #5555FF" x1="166" y1="-16" x2="166" y2="16"/>
  <line style="fill: none; fill-opacity:0; stroke-width: 8; stroke-linejoin: round; stroke: #5555FF" x1="186" y1="-16" x2="186" y2="16"/>
  <line style="fill: none; fill-opacity:0; stroke-width: 8; stroke-linejoin: round; stroke: #5555FF" x1="206" y1="-16" x2="206" y2="16"/>
  <line style="fill: none; fill-opacity:0; stroke-width: 8; stroke-linejoin: round; stroke: #5555FF" x1="226" y1="-16" x2="226" y2="16"/>
  <line style="fill: none; fill-opacity:0; stroke-width: 8; stroke-linejoin: round; stroke: #5555FF" x1="246" y1="-16" x2="246" y2="16"/>
  <line style="fill: none; fill-opacity:0; stroke-width: 8; stroke-linejoin: round; stroke: #5555FF" x1="266" y1="-16" x2="266" y2="16"/>
  <line style="fill: none; fill-opacity:0; stroke-width: 8; stroke-linejoin: round; stroke: #5555FF" x1="286" y1="-16" x2="286" y2="16"/>
  <line style="fill: none; fill-opacity:0; stroke-width: 8; stroke-linejoin: round; stroke: #5555FF" x1="306" y1="-16" x2="306" y2="16"/>
  <line style="fill: none; fill-opacity:0; stroke-width: 8; stroke-linejoin: round; stroke: #5555FF" x1="326" y1="-16" x2="326" y2="16"/>
  <line style="fill: none; fill-opacity:0; stroke-width: 8; stroke-linejoin: round; stroke: #5555FF" x1="346" y1="-16" x2="346" y2="16"/>
  <line style="fill: none; fill-opacity:0; stroke-width: 8; stroke-linejoin: round; stroke: #5555FF" x1="366" y1="-16" x2="366" y2="16"/>
  <line style="fill: none; fill-opacity:0; stroke-width: 8; stroke-linejoin: round; stroke: #5555FF" x1="386" y1="-16" x2="386" y2="16"/>
  <line style="fill: none; fill-opacity:0; stroke-width: 8; stroke-linejoin: round; stroke: #5555FF" x1="406" y1="-16" x2="406" y2="16"/>
  <line style="fill: none; fill-opacity:0; stroke-width: 8; stroke-linejoin: round; stroke: #5555FF" x1="426" y1="-16" x2="426" y2="16"/>
  <line style="fill: none; fill-opacity:0; stroke-width: 8; stroke-linejoin: round; stroke: #5555FF" x1="446" y1="-16" x2="446" y2="16"/>
  <line style="fill: none; fill-opacity:0; stroke-width: 8; stroke-linejoin: round; stroke: #5555FF" x1="466" y1="-16" x2="466" y2="16"/>
  <line style="fill: none; fill-opacity:0; stroke-width: 8; stroke-linejoin: round; stroke: #5555FF" x1="126" y1="446" x2="126" y2="478"/>
  <line style="fill: none; fill-opacity:0; stroke-width: 8; stroke-linejoin: round; stroke: #5555FF" x1="146" y1="446" x2="146" y2="478"/>
  <line style="fill: none; fill-opacity:0; stroke-width: 8; stroke-linejoin: round; stroke: #5555FF" x1="166" y1="446" x2="166" y2="478"/>
  <line style="fill: none; fill-opacity:0; stroke-width: 8; stroke-linejoin: round; stroke: #5555FF" x1="186" y1="446" x2="186" y2="478"/>
  <line style="fill: none; fill-opacity:0; stroke-width: 8; stroke-linejoin: round; stroke: #5555FF" x1="206" y1="446" x2="206" y2="478"/>
  <line style="fill: none; fill-opacity:0; stroke-width: 8; stroke-linejoin: round; stroke: #5555FF" x1="226" y1="446" x2="226" y2="478"/>
  <line style="fill: none; fill-opacity:0; stroke-width: 8; stroke-linejoin: round; stroke: #5555FF" x1="246" y1="446" x2="246" y2="478"/>
  <line style="fill: none; fill-opacity:0; stroke-width: 8; stroke-linejoin: round; stroke: #5555FF" x1="266" y1="446" x2="266" y2="478"/>
  <line style="fill: none; fill-opacity:0; stroke-width: 8; stroke-linejoin: round; stroke: #5555FF" x1="286" y1="446" x2="286" y2="478"/>
  <line style="fill: none; fill-opacity:0; stroke-width: 8; stroke-linejoin: round; stroke: #5555FF" x1="306" y1="446" x2="306" y2="478"/>
  <line style="fill: none; fill-opacity:0; stroke-width: 8; stroke-linejoin: round; stroke: #5555FF" x1="326" y1="446" x2="326" y2="478"/>
  <line style="fill: none; fill-opacity:0; stroke-width: 8; stroke-linejoin: round; stroke: #5555FF" x1="346" y1="446" x2="346" y2="478"/>
  <line style="fill: none; fill-opacity:0; stroke-width: 8; stroke-linejoin: round; stroke: #5555FF" x1="366" y1="446" x2="366" y2="478"/>
  <line style="fill: none; fill-opacity:0; stroke-width: 8; stroke-linejoin: round; stroke: #5555FF" x1="386" y1="446" x2="386" y2="478"/>
  <line style="fill: none; fill-opacity:0; stroke-width: 8; stroke-linejoin: round; stroke: #5555FF" x1="406" y1="446" x2="406" y2="478"/>
  <line style="fill: none; fill-opacity:0; stroke-width: 8; stroke-linejoin: round; stroke: #5555FF" x1="426" y1="446" x2="426" y2="478"/>
  <line style="fill: none; fill-opacity:0; stroke-width: 8; stroke-linejoin: round; stroke: #5555FF" x1="446" y1="446" x2="446" y2="478"/>
  <line style="fill: none; fill-opacity:0; stroke-width: 8; stroke-linejoin: round; stroke: #5555FF" x1="466" y1="446" x2="466" y2="478"/>
  <text style="fill: #5555FF;text-anchor:start;font-family:sans-serif;font-style:normal;font-weight:normal" x="190" y="250">
    <tspan x="190" y="250" font-family="sans-serif" font-size="120px">LSA</tspan>
  </text>
</svg>
